<?xml version="1.0" encoding="UTF-8" standalone="no"?>
<!-- Created with Inkscape (http://www.inkscape.org/) -->

<svg
   xmlns:dc="http://purl.org/dc/elements/1.1/"
   xmlns:cc="http://creativecommons.org/ns#"
   xmlns:rdf="http://www.w3.org/1999/02/22-rdf-syntax-ns#"
   xmlns:svg="http://www.w3.org/2000/svg"
   xmlns="http://www.w3.org/2000/svg"
   xmlns:sodipodi="http://sodipodi.sourceforge.net/DTD/sodipodi-0.dtd"
   xmlns:inkscape="http://www.inkscape.org/namespaces/inkscape"
   version="1.1"
   id="svg5001"
   width="878"
   height="470"
   viewBox="0 0 878 470"
   sodipodi:docname="logo.svg"
   inkscape:version="0.92.1 r15371">
  <metadata
     id="metadata5007">
    <rdf:RDF>
      <cc:Work
         rdf:about="">
        <dc:format>image/svg+xml</dc:format>
        <dc:type
           rdf:resource="http://purl.org/dc/dcmitype/StillImage" />
        <dc:title></dc:title>
      </cc:Work>
    </rdf:RDF>
  </metadata>
  <defs
     id="defs5005" />
  <sodipodi:namedview
     pagecolor="#ffffff"
     bordercolor="#666666"
     borderopacity="1"
     objecttolerance="10"
     gridtolerance="10"
     guidetolerance="10"
     inkscape:pageopacity="0"
     inkscape:pageshadow="2"
     inkscape:window-width="1918"
     inkscape:window-height="1042"
     id="namedview5003"
     showgrid="false"
     inkscape:zoom="0.87945399"
     inkscape:cx="138.93176"
     inkscape:cy="264.50001"
     inkscape:window-x="0"
     inkscape:window-y="18"
     inkscape:window-maximized="0"
     inkscape:current-layer="g5570" />
  <g
     id="g5570"
     transform="translate(1.8436648,-0.5587772)">
    <path
       style="fill:#bebebe"
       d="M 14,374.01582 V 290 H 42.005712 70.011424 L 69.755712,373.75 69.5,457.5 41.75,457.76582 14,458.03164 Z M 367,346.5 V 290 H 394.5 422 V 346.5 403 H 394.5 367 Z m -264.53271,0.26612 C 102.20202,346.06975 102.10086,295.775 102.24249,235 L 102.5,124.5 H 130 157.5 V 236 347.5 l -27.2752,0.26612 c -21.28091,0.20763 -27.3812,-0.0121 -27.75751,-1 z m 176.19938,0.56721 C 278.3,346.96667 278,321.54167 278,290.83333 V 235 h 28 28 v 56.5 56.5 h -27.33333 c -15.03334,0 -27.63334,-0.3 -28,-0.66667 z M 455,264 v -84 h 27.5 27.5 v 84 84 H 482.5 455 Z M 190,236 v -56 h 28 28 v 56 56 H 218 190 Z M 543,152.98418 V 68.968363 l 27.75,0.265818 27.75,0.265819 0.25571,83.75 0.25571,83.75 H 571.00571 543 Z M 631.24167,180.75 631.5,124.5 h 27.5 27.5 l 0.25833,56.25 0.25832,56.25 H 659 630.98335 Z m 176.21565,-27.00063 c -0.26396,-0.68785 -0.36233,-19.92535 -0.21862,-42.75 L 807.5,69.5 835.25,69.234181 863,68.968363 V 111.98418 155 h -27.53138 c -21.11007,0 -27.64332,-0.29169 -28.0113,-1.25063 z M 719.24167,70.75 719.5,14.5 h 27.5 27.5 l 0.25833,56.25 0.25832,56.25 H 747 718.98335 Z"
       id="path5584"
       inkscape:connector-curvature="0" />
    <path
       style="fill:#cece00"
       d="M 14,373.5 V 290 H 41.5 69 V 373.5 457 H 41.5 14 Z M 367,346 v -56 h 27.5 27.5 v 56 56 H 394.5 367 Z M 102,236 V 125 h 28 28 v 111 111 h -28 -28 z m 177,55 v -56 h 27.5 27.5 v 56 56 H 306.5 279 Z M 455,263.5 V 180 H 482.5 510 V 263.5 347 H 482.5 455 Z M 191,236 v -56 h 27.5 27.5 v 56 56 H 218.5 191 Z M 543,153.5 V 70 H 570.5 598 V 153.5 237 H 570.5 543 Z m 88,27.5 v -56 h 27.5 27.5 v 56 56 H 658.5 631 Z M 808,112.51607 V 70 h 27.51085 27.51086 l -0.26086,42.25 -0.26085,42.25 -27.25,0.26607 -27.25,0.26607 z m -88.31759,13.833 C 719.30708,125.97375 719,100.76667 719,70.333333 V 15 h 28.0084 28.00839 l -0.25839,55.75 -0.2584,55.75 -27.06759,0.26574 c -14.88718,0.14616 -27.37468,-0.0413 -27.75,-0.41667 z"
       id="path5582"
       inkscape:connector-curvature="0" />
    <path
       style="fill:#7f7f7f"
       d="M 14,373.5 V 290 H 41.5 69 V 373.5 457 H 41.5 14 Z M 367,346 v -56 h 27.5 27.5 v 56 56 H 394.5 367 Z m 53,0 V 292 H 394.5 369 v 54 54 H 394.5 420 Z M 102,236 V 125 h 28 28 v 111 111 h -28 -28 z m 177,55 v -56 h 27.5 27.5 v 56 56 H 306.5 279 Z M 455,263.5 V 180 H 482.5 510 V 263.5 347 H 482.5 455 Z M 191,236 v -56 h 27.5 27.5 v 56 56 H 218.5 191 Z m 52,0 v -54 h -25 -25 v 54 54 h 25 25 z M 543,153.5 V 70 H 570.5 598 V 153.5 237 H 570.5 543 Z m 88,27.5 v -56 h 27.5 27.5 v 56 56 H 658.5 631 Z m 53,0 v -54 h -25 -25 v 54 54 h 25 25 z M 808,112.51607 V 70 h 27.51085 27.51086 l -0.26086,42.25 -0.26085,42.25 -27.25,0.26607 -27.25,0.26607 z m -88.31759,13.833 C 719.30708,125.97375 719,100.76667 719,70.333333 V 15 h 28.0084 28.00839 l -0.25839,55.75 -0.2584,55.75 -27.06759,0.26574 c -14.88718,0.14616 -27.37468,-0.0413 -27.75,-0.41667 z"
       id="path5580"
       inkscape:connector-curvature="0" />
    <path
       style="fill:#ff6347;fill-opacity:1"
       d="M 14,373.5 V 290 H 41.5 69 V 373.5 457 H 41.5 14 Z M 367,346 v -56 h 27.5 27.5 v 56 56 H 394.5 367 Z m 53,0 V 292 H 394.5 369 v 54 54 H 394.5 420 Z M 103,236 V 125 h 27 27 v 111 111 h -27 -27 z m 176,55 v -56 h 27.5 27.5 v 56 56 H 306.5 279 Z M 455,263.5 V 180 H 482.5 510 V 263.5 347 H 482.5 455 Z M 191,236 v -56 h 27 27 v 56 56 h -27 -27 z m 52,0 v -54 h -25 -25 v 54 54 h 25 25 z M 543,153.5 V 70 H 570.5 598 V 153.5 237 H 570.5 543 Z m 89,27.5 v -56 h 27 27 v 56 56 h -27 -27 z m 52,0 v -54 h -25 -25 v 54 54 h 25 25 z M 808,112 V 70 h 27.5 27.5 v 42 42 H 835.5 808 Z M 720,71 V 15 h 27 27 v 56 56 h -27 -27 z"
       id="path5578"
       inkscape:connector-curvature="0" />
    <path
       style="fill:#00a517"
       d="M 14,373.5 V 290 H 41.5 69 V 373.5 457 H 41.5 14 Z M 367,346 v -56 h 27.5 27.5 v 56 56 H 394.5 367 Z m 53,0 V 292 H 394.5 369 v 54 54 H 394.5 420 Z M 103,236 V 125 h 27 27 v 111 111 h -27 -27 z m 176,55 v -56 h 27.5 27.5 v 56 56 H 306.5 279 Z M 455,263.5 V 180 H 482.5 510 V 263.5 347 H 482.5 455 Z M 191,236 v -56 h 27 27 v 56 56 h -27 -27 z m 52,0 v -54 h -25 -25 v 54 54 h 25 25 z M 543,153.5 V 70 H 570.5 598 V 153.5 237 H 570.5 543 Z m 89,27.5 v -56 h 27 27 v 56 56 h -27 -27 z m 52,0 v -54 h -25 -25 v 54 54 h 25 25 z M 808,112 V 70 h 27.5 27.5 v 42 42 H 835.5 808 Z m 53,0 V 72 H 835.5 810 v 40 40 H 835.5 861 Z M 720,71 V 15 h 27 27 v 56 56 h -27 -27 z"
       id="path5576"
       inkscape:connector-curvature="0" />
    <path
       style="fill:#00660d"
       d="M 14,373.5 V 290 H 41.5 69 V 373.5 457 H 41.5 14 Z m 53,0 V 292 H 42 17 V 373.5 455 H 42 67 Z M 367,346 v -56 h 27.5 27.5 v 56 56 H 394.5 367 Z m 53,0 V 292 H 394.5 369 v 54 54 H 394.5 420 Z M 103,236 V 125 h 27 27 v 111 111 h -27 -27 z m 52,0 V 127 h -25 -25 v 109 109 h 25 25 z m 124,55 v -56 h 27.5 27.5 v 56 56 H 306.5 279 Z m 52,0 v -54 h -25 -25 v 54 54 h 25 25 z M 455,263.5 V 180 H 482.5 510 V 263.5 347 H 482.5 455 Z m 53,0 V 182 h -25 -25 v 81.5 81.5 h 25 25 z M 191,236 v -56 h 27 27 v 56 56 h -27 -27 z m 52,0 v -54 h -25 -25 v 54 54 h 25 25 z M 543,153.5 V 70 H 570.5 598 V 153.5 237 H 570.5 543 Z m 53,0 V 72 h -25 -25 v 81.5 81.5 h 25 25 z m 36,27.5 v -56 h 27 27 v 56 56 h -27 -27 z m 52,0 v -54 h -25 -25 v 54 54 h 25 25 z M 808,112 V 70 h 27.5 27.5 v 42 42 H 835.5 808 Z m 53,0 V 72 H 835.5 810 v 40 40 H 835.5 861 Z M 720,71 V 15 h 27 27 v 56 56 h -27 -27 z m 52,-0.5 V 17 H 747 722 V 70.5 124 h 25 25 z"
       id="path5574"
       inkscape:connector-curvature="0" />
    <path
       style="fill:#0b0f08"
       d="M 15,373.5 V 290 H 42 69 V 373.5 457 H 42 15 Z m 52,0 V 292 H 41.5 16 V 373.5 455 H 41.5 67 Z M 367,346 v -56 h 27 27 v 56 56 h -27 -27 z m 53,0 V 292 H 394.5 369 v 54 54 H 394.5 420 Z M 103,236 V 125 h 27 27 v 111 111 h -27 -27 z m 53,0 V 127 h -26 -26 v 109 109 h 26 26 z m 123,55 v -56 h 27 27 v 56 56 h -27 -27 z m 53,0 V 237 H 306.5 281 v 54 54 H 306.5 332 Z M 456,263.5 V 180 h 27 27 v 83.5 83.5 h -27 -27 z m 52,0 V 182 H 482.5 457 V 263.5 345 H 482.5 508 Z M 191,236 v -56 h 27 27 v 56 56 h -27 -27 z m 53,0 V 182 H 218.5 193 v 54 54 H 218.5 244 Z M 544,153.5 V 70 h 27 27 v 83.5 83.5 h -27 -27 z m 52,0 V 72 H 570.5 545 v 81.5 81.5 h 25.5 25.5 z m 36,27.5 v -56 h 27 27 v 56 56 h -27 -27 z m 52,0 V 127 H 658.5 633 v 54 54 H 658.5 684 Z M 808,112 V 70 h 27 27 v 42 42 h -27 -27 z m 53,0 V 72 H 835.5 810 v 40 40 H 835.5 861 Z M 720,70.5 V 15 h 27 27 V 70.5 126 H 747 720 Z M 773,71 V 17 h -26 -26 v 54 54 h 26 26 z"
       id="path5572"
       inkscape:connector-curvature="0" />
  </g>
</svg>
